<svg xmlns="http://www.w3.org/2000/svg" viewBox="0 0 64 64" id="effort-together"><path fill="#4e5292" d="M19.16 35.11c-2.86 0-5.28 1.86-6.14 4.44v.01s0 .01-.01.01c-.2.63-.32 1.3-.32 2 0 3.57 2.9 6.47 6.47 6.47 3.56 0 6.46-2.9 6.46-6.47-.01-3.56-2.9-6.46-6.46-6.46zm0 1.94c1.79 0 3.34 1.07 4.07 2.59-.71-.21-1.24-.58-1.87-1.22a.966.966 0 0 0-1.29-.08c-.02.02-2.2 1.68-4.84 1.04.77-1.38 2.23-2.33 3.93-2.33zm0 9.05c-2.49 0-4.53-2.03-4.53-4.53 0-.11.03-.21.04-.32 2.59.67 4.81-.29 5.9-.92.91.78 1.84 1.18 3.1 1.38-.08 2.43-2.07 4.39-4.51 4.39z"></path><path fill="#f0d299" d="M23.67 41.71c-.08 2.43-2.07 4.39-4.51 4.39-2.49 0-4.53-2.03-4.53-4.53 0-.11.03-.21.04-.32 2.59.67 4.81-.29 5.9-.92.9.78 1.84 1.18 3.1 1.38z"></path><path fill="#98d3ba" d="M23.23 39.64c-.71-.21-1.24-.58-1.87-1.22a.966.966 0 0 0-1.29-.08c-.02.02-2.2 1.68-4.84 1.04.77-1.38 2.23-2.33 3.93-2.33 1.79 0 3.33 1.07 4.07 2.59z"></path><path fill="#dfc189" d="M19.13 46.1a4.539 4.539 0 0 1-4.5-4.53c0-.11.03-.21.04-.32.55.15 1.09.2 1.59.22v.1c0 2.49 1.29 4.51 2.87 4.53z"></path><path fill="#ffe4aa" d="M23.67 41.71c-.08 2.43-2.07 4.39-4.51 4.39 1.6-.01 2.89-2.04 2.89-4.53 0-.11 0-.21-.01-.31.49.21 1.01.35 1.63.45z"></path><path fill="#89c3a8" d="M18.93 37.06c-1.03.13-1.91 1.09-2.36 2.46-.43.01-.88-.03-1.35-.15a4.528 4.528 0 0 1 3.71-2.31z"></path><path fill="#b9e0ce" d="M23.23 39.64c-.71-.21-1.24-.58-1.87-1.22a.786.786 0 0 0-.27-.19c-.5-.73-1.19-1.17-1.93-1.17 1.79-.01 3.33 1.06 4.07 2.58z"></path><path fill="#4e5292" d="M21.49 48.81h-4.67c-3.62 0-6.56 2.94-6.56 6.56v7.66c0 .53.44.97.97.97h15.86c.53 0 .97-.44.97-.97v-7.66c0-3.63-2.95-6.56-6.57-6.56zm-1.72 1.93-.32 1.02h-.59l-.31-1.02h1.22zm-.84 2.96h.45l.83 3.89-1.06 1.12-1.06-1.12.84-3.89zm7.19 8.36H12.19v-6.69c0-2.45 1.92-4.44 4.32-4.6l.62 2.01-1.04 4.9c-.07.31.02.63.24.86l2.1 2.25c.18.19.44.3.71.3.26 0 .52-.11.71-.3l2.1-2.25a.94.94 0 0 0 .24-.86l-1.05-4.9.62-2.01c2.41.16 4.33 2.14 4.33 4.6v6.69z"></path><path fill="#bbe0f6" d="M26.12 55.37v6.69H12.19v-6.69c0-2.45 1.92-4.44 4.32-4.6l.62 2.01-1.04 4.9c-.07.31.02.63.24.86l2.1 2.25c.18.19.44.3.71.3.26 0 .52-.11.71-.3l2.1-2.25a.94.94 0 0 0 .24-.86l-1.05-4.9.62-2.01c2.44.16 4.36 2.15 4.36 4.6z"></path><path fill="#cae5f7" d="M26.12 55.37v6.69h-1.5v-6.69c0-2.21-1.22-4.04-2.86-4.49l.03-.11c2.41.16 4.33 2.15 4.33 4.6z"></path><path fill="#a7d6e7" d="M16.55 50.88c-1.63.45-2.85 2.28-2.85 4.49v6.69h-1.5v-6.69c0-2.45 1.92-4.44 4.32-4.6l.03.11z"></path><path fill="#ffdb7c" d="m19.77 50.74-.32 1.02h-.59l-.31-1.02zM20.21 57.59l-1.05 1.12-1.06-1.12.83-3.89h.45z"></path><path fill="#4e5292" d="M44.84 35.11c-2.85 0-5.28 1.86-6.13 4.44 0 0-.01 0-.01.01v.02c-.21.62-.32 1.3-.32 1.99 0 3.57 2.9 6.47 6.46 6.47 3.57 0 6.47-2.9 6.47-6.47 0-3.56-2.9-6.46-6.47-6.46zm0 1.94c1.8 0 3.35 1.07 4.07 2.59-.71-.21-1.24-.58-1.87-1.22a.963.963 0 0 0-1.28-.08c-.11.07-2.24 1.68-4.85 1.04.78-1.38 2.24-2.33 3.93-2.33zm0 9.05a4.53 4.53 0 0 1-4.52-4.53c0-.11.02-.21.03-.32 2.59.67 4.81-.29 5.9-.92.91.78 1.84 1.18 3.1 1.38-.08 2.43-2.06 4.39-4.51 4.39z"></path><path fill="#98d3ba" d="M48.92 39.64c-.71-.21-1.24-.58-1.87-1.22a.963.963 0 0 0-1.28-.08c-.11.07-2.24 1.68-4.85 1.04.78-1.38 2.23-2.33 3.93-2.33 1.8 0 3.34 1.07 4.07 2.59z"></path><path fill="#f0d299" d="M49.35 41.71c-.08 2.43-2.07 4.39-4.51 4.39a4.53 4.53 0 0 1-4.52-4.53c0-.11.02-.21.03-.32 2.59.67 4.81-.29 5.9-.92.91.78 1.84 1.18 3.1 1.38z"></path><path fill="#4e5292" d="M47.18 48.81h-4.67c-3.62 0-6.56 2.94-6.56 6.56v7.66c0 .53.44.97.97.97h15.86c.53 0 .97-.44.97-.97v-7.66a6.572 6.572 0 0 0-6.57-6.56zm-1.73 1.93-.31 1.02h-.59l-.32-1.02h1.22zm-.83 2.96h.45l.83 3.89-1.06 1.12-1.06-1.12.84-3.89zm7.19 8.36H37.88v-6.69c0-2.45 1.92-4.44 4.33-4.6l.62 2.01-1.05 4.9c-.07.31.02.63.24.86l2.1 2.25c.18.19.44.3.71.3s.52-.11.71-.3l2.1-2.25a.94.94 0 0 0 .24-.86l-1.04-4.9.61-2.01c2.41.16 4.33 2.14 4.33 4.6v6.69z"></path><path fill="#bbe0f6" d="M51.81 55.37v6.69H37.88v-6.69c0-2.45 1.92-4.44 4.33-4.6l.62 2.01-1.05 4.9c-.07.31.02.63.24.86l2.1 2.25c.18.19.44.3.71.3s.52-.11.71-.3l2.1-2.25a.94.94 0 0 0 .24-.86l-1.04-4.9.61-2.01c2.44.16 4.36 2.15 4.36 4.6z"></path><path fill="#ffdb7c" d="m45.45 50.74-.31 1.02h-.59l-.32-1.02zM45.9 57.59l-1.06 1.12-1.05-1.12.83-3.89h.45z"></path><path fill="#4e5292" d="M29.81 11.19a6.134 6.134 0 0 0-4.37-1.81 6.1 6.1 0 0 0-4.37 1.81 6.111 6.111 0 0 0-1.81 4.36 6.1 6.1 0 0 0 1.81 4.37 6.122 6.122 0 0 0 4.37 1.81c1.58 0 3.16-.6 4.37-1.81 2.41-2.4 2.41-6.32 0-8.73zm-1.37 7.37c-1.65 1.65-4.34 1.65-6 0-.8-.8-1.24-1.87-1.24-3.01 0-1.12.45-2.19 1.24-3 .8-.8 1.87-1.24 3.01-1.24 1.13 0 2.19.44 3 1.24a4.276 4.276 0 0 1-.01 6.01z"></path><path fill="#4e5292" d="M39.62 12.46a.962.962 0 0 0-.68-.29h-1.92c-.24-.84-.58-1.66-1-2.42l1.35-1.35c.18-.18.28-.43.28-.69 0-.25-.1-.5-.28-.69l-3.41-3.4a.952.952 0 0 0-.68-.28c-.26 0-.5.1-.69.28l-1.35 1.36c-.78-.43-1.58-.76-2.43-1.01V2.06a.97.97 0 0 0-.97-.97h-4.82c-.25 0-.5.11-.68.28-.18.18-.29.44-.29.69l.01 1.92c-.85.24-1.66.58-2.43 1l-1.35-1.35a.966.966 0 0 0-1.37 0l-3.41 3.4a.993.993 0 0 0 0 1.38l1.36 1.35c-.42.77-.76 1.58-1 2.42h-1.92c-.53.01-.97.44-.97.97v4.82c0 .26.11.5.29.69.17.18.43.28.68.28h1.92c.24.84.58 1.66 1 2.42l-1.35 1.36a.976.976 0 0 0 0 1.37l3.4 3.41c.18.17.44.28.69.28.26 0 .5-.11.69-.28l1.35-1.36c.78.43 1.58.76 2.42 1l.01 1.92c0 .53.43.97.97.97h4.81c.54 0 .97-.44.97-.97v-1.92c.85-.24 1.66-.58 2.43-1l1.35 1.35c.38.38.99.38 1.37 0l3.41-3.41c.18-.17.28-.43.28-.68 0-.26-.1-.5-.28-.69l-1.36-1.35c.43-.78.77-1.59 1.01-2.43h1.91c.53 0 .97-.44.97-.97v-4.82c0-.25-.11-.5-.29-.68zm-1.65 4.53h-1.7c-.46 0-.85.32-.95.77-.25 1.15-.7 2.24-1.34 3.24a.97.97 0 0 0 .14 1.2l1.2 1.2-2.04 2.04-1.2-1.2a.968.968 0 0 0-1.2-.13c-1 .63-2.08 1.09-3.24 1.34-.45.1-.77.49-.77.95v1.7H24v-1.7c0-.46-.31-.85-.76-.95-1.15-.25-2.24-.7-3.24-1.34a.97.97 0 0 0-1.2.14l-1.2 1.19-2.04-2.03 1.2-1.2c.32-.32.38-.82.13-1.21-.63-.99-1.08-2.08-1.34-3.23a.97.97 0 0 0-.94-.77H12.9v-2.88h1.7c.46 0 .85-.31.95-.76.25-1.16.71-2.25 1.34-3.24.24-.38.19-.88-.14-1.2l-1.2-1.2 2.04-2.04 1.2 1.2c.32.32.82.37 1.2.13 1-.63 2.08-1.09 3.24-1.34.45-.09.77-.49.77-.95l-.01-1.7h2.88v1.7c.01.46.32.85.77.95a9.8 9.8 0 0 1 3.24 1.34c.39.24.88.18 1.2-.14l1.2-1.2 2.04 2.04-1.2 1.2c-.32.32-.37.82-.13 1.2.63.99 1.09 2.09 1.34 3.24.1.45.49.76.95.76h1.7v2.88z"></path><path fill="#d3d7e4" d="M36.27 14.11c-.46 0-.85-.31-.95-.76-.25-1.15-.71-2.25-1.34-3.24a.968.968 0 0 1 .13-1.2l1.2-1.2-2.04-2.04-1.2 1.2c-.32.32-.81.38-1.2.14a9.713 9.713 0 0 0-3.24-1.34.983.983 0 0 1-.77-.95v-1.7h-2.88l.02 1.7c0 .46-.32.85-.77.95-1.15.25-2.24.71-3.24 1.34-.38.24-.88.19-1.2-.13l-1.2-1.2-2.04 2.04 1.2 1.2c.33.32.38.82.14 1.2-.63.99-1.09 2.08-1.34 3.24-.1.45-.49.76-.95.76h-1.7V17h1.71c.45 0 .84.32.94.77.26 1.15.71 2.24 1.34 3.23.25.39.19.89-.13 1.21l-1.2 1.2 2.04 2.03 1.2-1.19a.97.97 0 0 1 1.2-.14 9.8 9.8 0 0 0 3.24 1.34c.45.1.76.49.76.95l.01 1.7h2.87v-1.7c0-.46.32-.85.77-.95 1.15-.25 2.24-.71 3.24-1.34.38-.24.88-.19 1.2.13l1.2 1.2 2.04-2.04-1.2-1.2a.97.97 0 0 1-.14-1.2 9.8 9.8 0 0 0 1.34-3.24c.1-.45.49-.77.95-.77h1.7v-2.88h-1.71zm-10.83 7.63c-1.59 0-3.17-.6-4.37-1.81a6.117 6.117 0 0 1-1.81-4.37c0-1.65.64-3.2 1.81-4.36a6.117 6.117 0 0 1 4.37-1.81c1.65 0 3.2.64 4.37 1.81 2.4 2.4 2.4 6.33 0 8.74a6.187 6.187 0 0 1-4.37 1.8z"></path><path fill="#4e5292" d="M52.69 3.71 48.51.23c-.29-.24-.69-.29-1.04-.14-.34.16-.55.5-.55.88v.87h-5.51c-.53 0-.97.44-.97.97V6.1c0 .53.44.97.97.97h5.51v.86c0 .38.21.72.55.88a.998.998 0 0 0 1.04-.13l4.18-3.48c.22-.18.35-.46.35-.75s-.13-.56-.35-.74zm-3.86 2.18a.963.963 0 0 0-.94-.76h-5.51V3.78h5.51c.47 0 .84-.33.94-.76l1.73 1.43-1.73 1.44z"></path><path fill="#f1b8c7" d="m50.55 4.45-1.73 1.44a.963.963 0 0 0-.94-.76h-5.51V3.78h5.51c.47 0 .84-.33.94-.76l1.73 1.43z"></path><path fill="#4e5292" d="m52.69 25.92-4.18-3.48a.983.983 0 0 0-1.04-.14c-.34.16-.55.5-.55.87v.87h-5.51c-.53 0-.97.44-.97.97v3.29c0 .53.44.97.97.97h5.51v.87c0 .38.21.72.55.87a.952.952 0 0 0 1.04-.13l4.18-3.48a.97.97 0 0 0 .35-.74c0-.28-.13-.55-.35-.74zm-3.86 2.17a.963.963 0 0 0-.94-.76h-5.51v-1.35h5.51c.47 0 .84-.32.94-.76l1.73 1.44-1.73 1.43z"></path><path fill="#f1b8c7" d="m50.55 26.67-1.73 1.43a.963.963 0 0 0-.94-.76h-5.51v-1.35h5.51c.47 0 .84-.32.94-.76l1.73 1.44z"></path><path fill="#dfc189" d="M44.81 46.1a4.539 4.539 0 0 1-4.5-4.53c0-.11.03-.21.04-.32.55.15 1.09.2 1.59.22v.1c0 2.49 1.29 4.51 2.87 4.53z"></path><path fill="#ffe4aa" d="M49.35 41.71c-.08 2.43-2.07 4.39-4.51 4.39 1.6-.01 2.89-2.04 2.89-4.53 0-.11 0-.21-.01-.31.5.21 1.02.35 1.63.45z"></path><path fill="#89c3a8" d="M44.62 37.06c-1.03.13-1.91 1.09-2.36 2.46-.43.01-.88-.03-1.35-.15a4.514 4.514 0 0 1 3.71-2.31z"></path><path fill="#b9e0ce" d="M48.92 39.64c-.71-.21-1.24-.58-1.87-1.22a.786.786 0 0 0-.27-.19c-.5-.73-1.19-1.17-1.93-1.17 1.79-.01 3.33 1.06 4.07 2.58z"></path><path fill="#cae5f7" d="M51.81 55.37v6.69h-1.5v-6.69c0-2.21-1.22-4.04-2.86-4.49l.03-.11c2.41.16 4.33 2.15 4.33 4.6z"></path><path fill="#a7d6e7" d="M42.23 50.88c-1.63.45-2.85 2.28-2.85 4.49v6.69h-1.5v-6.69c0-2.45 1.92-4.44 4.32-4.6l.03.11z"></path><path fill="#bec5da" d="M25.44 6.6c-4.95 0-8.96 4.01-8.96 8.95 0 4.95 4.01 8.96 8.96 8.96 4.94 0 8.95-4.01 8.95-8.96 0-4.94-4.01-8.95-8.95-8.95zm0 16.5c-4.17 0-7.54-3.37-7.54-7.54a7.53 7.53 0 0 1 7.54-7.53c4.16 0 7.53 3.37 7.53 7.53a7.53 7.53 0 0 1-7.53 7.54z"></path><path fill="#acb3c6" d="M25.44 8.02a7.53 7.53 0 0 0-7.54 7.53c0 4.17 3.37 7.54 7.54 7.54a7.53 7.53 0 0 0 7.53-7.54c0-4.15-3.37-7.53-7.53-7.53zm4.37 11.91a6.155 6.155 0 0 1-4.37 1.81c-1.59 0-3.17-.6-4.37-1.81a6.117 6.117 0 0 1-1.81-4.37c0-1.65.64-3.2 1.81-4.36a6.117 6.117 0 0 1 4.37-1.81c1.65 0 3.2.64 4.37 1.81 2.41 2.4 2.41 6.32 0 8.73z"></path></svg>